<svg xmlns="http://www.w3.org/2000/svg" width="1200" height="630" viewBox="0 0 1200 630" role="img" aria-label="ContactBridge social preview">
  <defs>
    <linearGradient id="bg" x1="0%" y1="0%" x2="100%" y2="100%">
      <stop offset="0%" stop-color="#eff6ff" />
      <stop offset="55%" stop-color="#dbeafe" />
      <stop offset="100%" stop-color="#bfdbfe" />
    </linearGradient>
    <linearGradient id="card" x1="0%" y1="0%" x2="100%" y2="100%">
      <stop offset="0%" stop-color="#2563eb" />
      <stop offset="100%" stop-color="#1d4ed8" />
    </linearGradient>
  </defs>
  <rect width="1200" height="630" fill="url(#bg)" />
  <circle cx="1030" cy="120" r="90" fill="#93c5fd" opacity="0.4" />
  <circle cx="1080" cy="520" r="130" fill="#60a5fa" opacity="0.22" />
  <rect x="90" y="110" width="500" height="410" rx="36" fill="url(#card)" />
  <rect x="150" y="180" width="240" height="28" rx="14" fill="#dbeafe" opacity="0.9" />
  <rect x="150" y="230" width="340" height="20" rx="10" fill="#bfdbfe" opacity="0.8" />
  <rect x="150" y="270" width="280" height="20" rx="10" fill="#bfdbfe" opacity="0.8" />
  <circle cx="178" cy="356" r="30" fill="#eff6ff" />
  <rect x="226" y="336" width="220" height="16" rx="8" fill="#eff6ff" />
  <rect x="226" y="364" width="180" height="16" rx="8" fill="#bfdbfe" />
  <circle cx="178" cy="442" r="30" fill="#eff6ff" />
  <rect x="226" y="422" width="220" height="16" rx="8" fill="#eff6ff" />
  <rect x="226" y="450" width="180" height="16" rx="8" fill="#bfdbfe" />
  <text x="650" y="235" fill="#0f172a" font-family="Arial, Helvetica, sans-serif" font-size="76" font-weight="700">ContactBridge</text>
  <text x="650" y="315" fill="#1e3a8a" font-family="Arial, Helvetica, sans-serif" font-size="34" font-weight="600">
    Review, merge, and export a privacy-first address book
  </text>
  <text x="650" y="365" fill="#334155" font-family="Arial, Helvetica, sans-serif" font-size="30">
    from your social graph across Bluesky, GitHub, LinkedIn,
  </text>
  <text x="650" y="410" fill="#334155" font-family="Arial, Helvetica, sans-serif" font-size="30">
    Mastodon, X, and Google Contacts.
  </text>
  <text x="650" y="500" fill="#1d4ed8" font-family="Arial, Helvetica, sans-serif" font-size="28" font-weight="700">
    https://voku.github.io/ContactBridge/
  </text>
</svg>
